<svg width="60" height="60" viewBox="0 0 60 60" fill="none">
<g clip-path="url(#clip0)">
<path d="M57.8841 22.3386C49.6263 16.7265 39.9841 13.7602 30 13.7602C20.0159 13.7602 10.3737 16.7265 2.11589 22.3386C-0.0906993 23.8383 -0.663818 26.8429 0.83587 29.0495C2.33555 31.2567 5.34078 31.8294 7.5468 30.3298C16.1919 24.4547 26.4383 22.3034 36.2562 23.8756C25.4838 27.5115 15.2858 35.3179 12.6677 37.4104C10.5703 38.8307 9.91525 41.6574 11.2221 43.8673C12.124 45.3921 13.7329 46.2398 15.3849 46.2398C16.2209 46.2398 17.068 46.0226 17.8397 45.5663C26.232 40.6026 36.6594 40.6026 45.0525 45.5663C47.3493 46.9244 50.3117 46.1637 51.67 43.8673C53.0282 41.5707 52.2675 38.6079 49.9711 37.2498C46.7733 35.3586 43.3585 33.9968 39.8483 33.1642C45.2231 31.0165 53.1502 31.1082 54.84 31.1548C55.0505 31.1606 55.1642 31.1657 55.1642 31.1657C56.7103 31.1656 58.2296 30.4249 59.1641 29.0495C60.6638 26.8429 60.0907 23.8383 57.8841 22.3386Z" fill="white"/>
</g>
<defs>
<clipPath id="clip0">
<rect width="60" height="60" fill="white"/>
</clipPath>
</defs>
</svg>
